# xmcd
#
# Track frame offsets: 
#        150
#        19425
#        36599
#        50631
#        69150
#        91730
#        111085
#        134400
#        151429
#        171300
#        191549
#        211498
#        231071
#        254469
#
# Disc length: 3662 seconds
#
# Revision: 0
# Processed by: cddbd v1.5.2PL0 Copyright (c) Steve Scherf et al.
# Submitted via: ExactAudioCopy v0.90b4
#
DISCID=c80e4c0e
DTITLE=Los Roba Corazones - The Hustle Heartz
DYEAR=2007
DGENRE=Latin
TTITLE0=Presiento
TTITLE1=Conflicto
TTITLE2=Qué Pensabas
TTITLE3=No Es
TTITLE4=Aunque No Esté
TTITLE5=Tengo Miedo
TTITLE6=A Pesar
TTITLE7=Estando Contigo
TTITLE8=No Te Olvidé
TTITLE9=Déjame Verte
TTITLE10=Amigos Por Siempre
TTITLE11=Anhelos
TTITLE12=Presiento (Pop)
TTITLE13=Tengo Miedo (Pop)
EXTD=
EXTT0=
EXTT1=
EXTT2=
EXTT3=
EXTT4=
EXTT5=
EXTT6=
EXTT7=
EXTT8=
EXTT9=
EXTT10=
EXTT11=
EXTT12=
EXTT13=
PLAYORDER=
